<svg xmlns="http://www.w3.org/2000/svg" viewBox="0 0 550 70">
  <defs>
    <style>
      .cls-1{fill:#0a4991;}.cls-2{fill:#2a2420;}.cls-3{fill:#898989;stroke:#3e3a39;stroke-miterlimit:10;stroke-width:0.01px;}
    </style>
  </defs>
  <path class="cls-1"
        d="M83,13.59h22.44q7.33,0,11,3.49T120.05,27q0,6.62-4,10.34t-12.15,3.73H96.54V57.28H83ZM96.54,32.21h3.31q3.9,0,5.48-1.36a4.37,4.37,0,0,0,1.58-3.47,4.85,4.85,0,0,0-1.37-3.49q-1.37-1.43-5.16-1.43H96.54Z" />
  <path class="cls-1" d="M123.31,13.59h41V24.38H150.58v32.9h-13.5V24.38H123.31Z" />
  <path class="cls-1"
        d="M189.52,50.07H174.19l-2.13,7.21H158.28L174.7,13.59h14.73l16.42,43.69H191.7Zm-2.8-9.45-4.82-15.71-4.77,15.71Z" />
  <path class="cls-1"
        d="M40.16,13.67H10a3.16,3.16,0,0,0-3.15,3.15v21.5A3.16,3.16,0,0,0,10,41.48H40.16a3.16,3.16,0,0,0,3.15-3.15V16.82A3.16,3.16,0,0,0,40.16,13.67ZM20,26.31q-1.16.49-2.3.94t-2.3.94l2.3.87,2.3.87v2.78L15.67,31l-4.28-1.72V27l4.28-1.72L20,23.56Zm3.9,8-2.64-.81,5.09-13.2,2.65.81Zm14.93-5L34.5,31l-4.28,1.72V29.94l2.3-.87,2.3-.87q-1.16-.49-2.3-.94t-2.3-.94V23.56l4.28,1.72L38.78,27Z" />
  <path class="cls-1"
        d="M46.09,22.57v15.7a5.43,5.43,0,0,1-5.39,5.45H23.3l.07,8.69s17-.94,20,3.87v.07l0,0,0,0v-.07c3.1-5,20-3.87,20-3.87l-.07-32.16C62.65,20.21,52.18,18.89,46.09,22.57Z" />
  <path class="cls-1"
        d="M44.41,62.78H42.46l-.5-.87C40,58.18,27.53,57.62,19.27,58.4l-1.76.17V47H9.56A8.67,8.67,0,0,1,1,38.27V16.79a8.67,8.67,0,0,1,8.61-8.7H40.7a8.65,8.65,0,0,1,8.48,7.22c3.59-.84,9.33-1.42,18.19-.54l1.94.14V58.57l-1.76-.17c-8.26-.79-20.76-.22-22.69,3.5Zm-17.54-8c10,0,14.54,2.27,16.54,4,2.38-2,8.31-4.84,22.68-3.73V17.92c-9.55-.86-15,.08-17.9,1l-2.11.69V16.79a5.43,5.43,0,0,0-5.39-5.45H9.56a5.43,5.43,0,0,0-5.39,5.45V38.27a5.43,5.43,0,0,0,5.39,5.45H20.72V55C23,54.84,25,54.76,26.87,54.76Z" />
  <path class="cls-2"
        d="M234.43,12.06a36.31,36.31,0,0,0,8.29-1.32,17.2,17.2,0,0,1,1.37,2.92l-.73.07q-2,.19-2.52.26v3h3.11V19.4h-3.11v2.17q.69-.35,1.51-.8l.28.36a14.55,14.55,0,0,1,1,1.47v-2H256v2.45h-4.8V25H255v2.35h-3.77v2.17h5.28V32H242.72V29.48h5.37V27.32H244.6V25h3.49V23.08h-4.14a3.21,3.21,0,0,0,.28.42,2.24,2.24,0,0,1,.38.71q-1,.53-2.26,1.32a19.28,19.28,0,0,0-1.14-1.9l-.36-.55v9.49H238.1V24.49l-.16.4q-.92,2.19-1.53,3.32a20.45,20.45,0,0,0-2-2.59,36.65,36.65,0,0,0,2.83-6.12V19.4H234.8V17h3.39V14.32l-.78.11q-1.26.19-1.86.22-.25-.64-.78-1.72A2.79,2.79,0,0,1,234.43,12.06ZM255,11.68V19.4H244.6V11.68Zm-3.11,2.45h-4.33V17h4.33Z" />
  <path class="cls-2"
        d="M269,12.72l-.2-.75a11.57,11.57,0,0,0-.36-1.22l1.79-.19q1.55-.16,2-.19.12.39.38,1.86.06.33.09.49h7.16v2.64h-16.2v8.29a15.87,15.87,0,0,1-2.59,8.6,11.51,11.51,0,0,0-2.68-1.6,12.65,12.65,0,0,0,1.87-4.3,27.67,27.67,0,0,0,.48-6.09V12.72Zm-1.7,8.15,1.65-1.79,2.31,1.18a9.89,9.89,0,0,0,1.41-1.32h-7.16V16.39h13.28a35.22,35.22,0,0,1-5.28,5.46l.52.38h6.26A40.8,40.8,0,0,1,279,27.41a8.23,8.23,0,0,0-3.3-.38q.21-.53.54-1.58l.21-.68h-2.92v6.66q-.09,1.68-4.95,1.46a6.75,6.75,0,0,0-.85-2.85q1.13,0,1.54,0a2.26,2.26,0,0,0,.72-.14q.46-.15.42-1.08V24.77h-6.12V22.23h5.18q-.47-.32-1.45-.91A5.36,5.36,0,0,1,267.3,20.86Z" />
  <path class="cls-2"
        d="M288.5,25.15q.32-.32,1.24-1.41a6,6,0,0,1,.84-.94A10.47,10.47,0,0,0,292,25.62a72.71,72.71,0,0,0-4.9,5.63q-.57.86-.75.75a24.29,24.29,0,0,1-2.07-3.27.81.81,0,0,1,.19-.21,4.08,4.08,0,0,0,.94-1.29,4.13,4.13,0,0,0,.19-1.6V20.25h-2.73V17.71h5.65Zm-3.58-13.38,3.3-.94a22.56,22.56,0,0,1,1.37,4.76l-3.11.85A29.87,29.87,0,0,0,284.92,11.77Zm3.72,17.85a14.92,14.92,0,0,0,5.42-2,14.62,14.62,0,0,1-2.17-5.18h-.66v-2a2.21,2.21,0,0,0-.66.33,8,8,0,0,0-1.88-2.54q3.5-.91,3.39-3.77v-3h8.48v3.53q0,.87.19,1c.11.16.42.23.94.22h2.73a7.57,7.57,0,0,0-.47,3h-3.86A4,4,0,0,1,298,18.9q-.49-.28-.47-1.38V13.85h-2.45v1a5.91,5.91,0,0,1-.57,3.07,5.39,5.39,0,0,1-2.35,1.92h9.7A16.71,16.71,0,0,1,299,27.41a21.27,21.27,0,0,0,5.89,1.74,7.17,7.17,0,0,0-1.79,3.37,24.07,24.07,0,0,1-6.64-2.76,33.29,33.29,0,0,1-6.12,2.85A7.41,7.41,0,0,0,288.64,29.62Zm6.26-7.3a9.29,9.29,0,0,0,1.6,3.2,10.3,10.3,0,0,0,1.41-3.2Z" />
  <path class="cls-2"
        d="M307,20.63V17.9h6.69v8.29A20.69,20.69,0,0,0,316.24,24a11.72,11.72,0,0,0,1.18,2.78q-3.56,2.8-5.93,5c-.13.09-.24.09-.33,0q-.93-1.52-1.6-2.8s.07-.11.22-.27q.86-.85.86-1.33V20.63Zm5.18-4.29a26,26,0,0,0-2.78-4l2.59-1.6a20,20,0,0,1,2.92,4.19Zm2.92,4.57V18.18h5.18V10.64h1q2.33,0,2.45.38a.92.92,0,0,1-.07.6,2.57,2.57,0,0,0-.21,1v5.42h5.27v2.73h-5.27v12h-3.2V20.91Z" />
  <path class="cls-2"
        d="M337.1,11.11a17.15,17.15,0,0,1,2,3.2l-2,.94h3.44V10.6q2,0,2.53,0a1.35,1.35,0,0,1,.72.15q.11.07,0,.35a4.38,4.38,0,0,0-.17,1.2v2.92h3.34l-2-1.13a19.68,19.68,0,0,0,2.17-3.3l2.87,1.7q-1.11,1.45-2.26,2.73h3.82v2.45H343.6v3.72h-3.11V19.22a21.33,21.33,0,0,1-6.31,4.43h6.31V22.14H343l.37,0a.53.53,0,0,1,.38.16q.12.12,0,.42a2.4,2.4,0,0,0-.19.89h8.76v2.54h-8q2.3,3.24,8.57,3.2a27.15,27.15,0,0,0-1.57,2.26q-.58,1-.79,1-5.82-1.24-8.29-4.78-2.47,3.45-8.67,5l-.07-.11a10.52,10.52,0,0,0-1.91-2.34q6.45-1,8.34-4.22h-8.24V23.64h1.88a15,15,0,0,0-1.7-2.07A16,16,0,0,0,338,17.71h-5.56V15.26h3.67a22,22,0,0,0-1.88-3ZM345.72,18A28.75,28.75,0,0,1,351.28,21l-1.74,2.5a27.84,27.84,0,0,0-5.42-3.34Z" />
  <path class="cls-2"
        d="M366.4,16.53h1.75l.84,0a1.33,1.33,0,0,1,.71.16q.13.11,0,.62a9.72,9.72,0,0,0-.28,2.34,26.25,26.25,0,0,1-.28,4h7.25v2.64h-7.82l-.19.42A47.66,47.66,0,0,1,376,30a20.43,20.43,0,0,0-2.17,2.9,46.78,46.78,0,0,0-7.35-4.12A26.09,26.09,0,0,1,358,32.38a11.11,11.11,0,0,0-2-2.8q6.55-1.1,8.85-3.3h-9.23V23.64h5.46a8.81,8.81,0,0,0-3.49-2.26,21.21,21.21,0,0,1,2.07-2.17,26,26,0,0,1,4.52,2.92,6.69,6.69,0,0,1-.58.79l-.55.72h3a21.33,21.33,0,0,0,.33-3.58ZM356,13.19h8.67q-.13-.73-.37-1.62-.18-.67-.11-.73.7-.08,2.3-.12a7.53,7.53,0,0,1,1.47,0c0,.13,0,.35,0,.66q.09,1.45.09,1.79h8v5.37h-3.3V15.73H359.14v2.73H356Zm4.33,5.18q0-.2,1.08-1.48l.42-.49a19.48,19.48,0,0,1,4.38,2.54,2.72,2.72,0,0,1-.41.55,14.43,14.43,0,0,0-1.33,1.71A17.38,17.38,0,0,0,360.37,18.37Z" />
  <path class="cls-2"
        d="M379.21,25.81a37.61,37.61,0,0,0,5.6-.71,10.65,10.65,0,0,1,.09,1.4l0,1q-3.94.88-5.46,1.27Q379.3,27.21,379.21,25.81Zm8.67-7.54q3.16-2.33,4.38-7.72l.32.07q2.48.55,3.36.82s0,.22-.21.61a1.31,1.31,0,0,0-.16.42,11,11,0,0,0,6.12,5.27,12.13,12.13,0,0,0-1.74,3,12.6,12.6,0,0,1-1.79-1.08v.75H390V20l-.85.75q-.12.08-1.41-1.22l-.09,2.07h1l-.28,7.72a2.78,2.78,0,0,1-1.14,2.54,8.11,8.11,0,0,1-4,.73l-.27-.92q-.32-1.11-.58-1.79a14.14,14.14,0,0,0,1.67,0,2,2,0,0,0,.82-.21q.54-.24.61-1.58t.19-4h-5q0-1.44.14-4.33t.14-4.33h1.41l1,0a.84.84,0,0,1,.66.28.57.57,0,0,1,0,.27,5.4,5.4,0,0,0-.15.72q-.11.88-.2,2.78-.07,1.45-.13,2.12H385q0-1.15.14-3.44l.14-3.44h-5.56V12.15h8.38Zm6.88,11,.14-.42q.36-1.06.52-1.65l-1.84.28q-.1-.33-.46-2.27-.46-2.45-.72-3.66l1.12-.16,1.42-.21q.07.33.2,1,.44,2.33.74,3.4l.32-1.17q.61-2.26,1-3.31a22.13,22.13,0,0,1,3,1,45.52,45.52,0,0,0-2.73,7.16H401V32H388.67V29.29Zm-5.89-7.21q1.21-.38,2.4-.66a47.14,47.14,0,0,1,1.51,6.36,18.07,18.07,0,0,1-2.25.59l-.29.07Q390.16,28.33,388.86,22.09Zm7.49-4a20.49,20.49,0,0,1-2-2.51l-.37-.51a18.77,18.77,0,0,1-2.07,3Z" />
  <path class="cls-2"
        d="M403.6,16.11V13.66h2.45q.15-.68.38-2.43.08-.64.09-.68t1.14,0l.37,0a5.43,5.43,0,0,1,1.6.38,1.24,1.24,0,0,1-.18.55,3,3,0,0,0-.2.48,9.58,9.58,0,0,1-.35,1c-.09.24-.17.44-.21.58h2.83v2.45h-3.39q-.07.19-.41,1.28-.76,2.45-1,3h.94v-2.5h.61q1.22,0,1.54,0t.48.2a1.06,1.06,0,0,1,0,.47,5,5,0,0,0-.08.85v.94h1.7v2.35h-1.7v2.07a10.6,10.6,0,0,0,1.7-.28A11.41,11.41,0,0,0,412,27l-.75.18-1,.25v5.06h-2.64V27.88q-2,.41-2.86.65a3.16,3.16,0,0,1-.72.15,21.32,21.32,0,0,1-.66-3.06,10.29,10.29,0,0,1,1.77-.21q1.69-.15,2.57-.26V22.89h-1.22a12.56,12.56,0,0,0-1.94.16,1.18,1.18,0,0,1-.46,0,13.75,13.75,0,0,1-.52-2.54s0-.05.11-.12q1.22-1.08,2-4.31Zm15.92-2.45h2l-1.6-1.51,2-1.79a21.18,21.18,0,0,1,2.17,2l-1.32,1.32h2.64v2.45h-5.84v1.41h4.62v13.4a1.2,1.2,0,0,1-.65,1.27,7.82,7.82,0,0,1-2.79.38,14.68,14.68,0,0,0-.75-2.8,3.58,3.58,0,0,0,1.15-.06c.16,0,.23-.22.21-.51V27.79h-1.79v4h-2.64v-4H415.1v4.69h-2.45v-15h4.24V16.11h-4.62V13.66h4.62v-3.2h.94q2,0,2,.19a1.2,1.2,0,0,1-.11.44,2.27,2.27,0,0,0-.18.88Zm-4.33,6.12v1.88h1.7V19.78Zm1.7,5.93V23.83h-1.7v1.88Zm2.64-4.05h1.79V19.78h-1.79Zm0,2.17v1.88h1.79V23.83Z" />
  <path class="cls-2"
        d="M440.62,18.27h-2.07V15.45h2.07v-4.8h1.87l.86,0q.58,0,.61.12s0,.1,0,.21a8.42,8.42,0,0,0-.22,2.19v2.26h4.52V21q-.08,5.79-.28,8.2,0,.12-.06.35a4.74,4.74,0,0,1-.32,1.32q-.06,1.29-4.52,1.6a10,10,0,0,0-1.13-3.18,7.36,7.36,0,0,0,2.31-.34,1,1,0,0,0,.61-1q.27-2.84.38-7.54V18.18h-1.7q-.27,6.52-1.32,9.07a13.48,13.48,0,0,1-4.14,5.65,26.23,26.23,0,0,0-2.73-1.55,10.32,10.32,0,0,0,3.2-3.18q-7.1,1.91-10.22,2.9-.13-.44-.44-1.28a18.35,18.35,0,0,1-.69-2.27l2-.28V12h8.57V26l1-.19v1.84Q440.44,24.65,440.62,18.27ZM434.88,17V14.51h-2.83V17Zm-2.83,2.36v2.45h2.83V19.31Zm2.83,7.16V24.11h-2.83v2.78Z" />
  <path class="cls-2"
        d="M464.93,13.38a7.69,7.69,0,0,1-.82,1.31l-.31.44a16.76,16.76,0,0,0-1.37,2.12h.8v2.45H460.5l-1.32,1.13h3l.09.19A19.79,19.79,0,0,1,460,24.77v.47q1.17-.19,3.39-.66,0,.4.09,1.22t.09,1.22l-1.79.28L460,27.6v3.18a1.25,1.25,0,0,1-.87,1.32,10.27,10.27,0,0,1-3.37.38,14.66,14.66,0,0,0-.75-2.8q2,.14,1.88-.66v-.75a32.83,32.83,0,0,0-4.24.94c-.15,0-.24,0-.28-.09a15.48,15.48,0,0,1-.31-1.79,4.77,4.77,0,0,1-.07-1.22,41.34,41.34,0,0,0,4.9-.57V24.11a6.43,6.43,0,0,0,.94-.85h-1.32q-1.6,1.07-2.92,1.88a7.6,7.6,0,0,0-2.07-1.7,17.63,17.63,0,0,0,2.54-1.6v-1h1.41l1.41-1.13h-5.09V17.24h4.52v-1.6h-3.3V13.19h3.3v-2.5h2.45a1.55,1.55,0,0,1,.61.08q.14.07,0,.44a5.69,5.69,0,0,0-.18,1.4v.57h1.79v1.37q.57-1.13,1-2.31A8.35,8.35,0,0,1,464.93,13.38Zm-5.65,2.17v1.6h.19a17.69,17.69,0,0,0,1-1.6Zm6.41-4.9q1.32.28,3.49.94a19.5,19.5,0,0,0-1.32,3.58h5.56V17.8h-1.79a21.68,21.68,0,0,1-2,9A13.16,13.16,0,0,0,473.78,30a16.89,16.89,0,0,0-2.35,2.8,22.5,22.5,0,0,1-3.58-3.27,14.11,14.11,0,0,1-4.71,3.27,18.36,18.36,0,0,0-2.35-2.07,14.46,14.46,0,0,0,5.37-3.84A21,21,0,0,1,465,23.36l-.17.22c-.1.16-.17.23-.21.2a17,17,0,0,0-1.84-1.17,2.2,2.2,0,0,1-.52-.34A31.67,31.67,0,0,0,465.68,10.64Zm1.51,7.16q-.21.79-.42,1.37a17,17,0,0,0,1,4.62,21.56,21.56,0,0,0,.94-6Z" />
  <path class="cls-2"
        d="M485.46,23.92q-.07-.52.4-.6a6.83,6.83,0,0,0,1.63-.91h-7.39V19.87H493a7.88,7.88,0,0,1-4.19,4.57v.24h8.38v2.64h-8.48V30.4q.08,1.62-.84,2t-4.25.48a11.46,11.46,0,0,0-.94-3.08,1.86,1.86,0,0,1,.41-.07q2.41-.28,2.41-1V27.32h-9.23V24.68h9.23ZM482,15.73h6.83a30.13,30.13,0,0,0,3.06-5.28,15.89,15.89,0,0,1,3.58,1.41q0,.11-.28.37a9.83,9.83,0,0,0-.75.77q-.57.61-2,2.45l-.15.19h4.62v5.09h-3.2V18.27H479.43v2.45h-3v-5H481a16.24,16.24,0,0,0-2.4-3.11,30,30,0,0,1,3.11-1.51,32.56,32.56,0,0,1,2.36,3.39l-.94.55Zm3.58-.85q-.47-1.84-1.13-3.77a29.91,29.91,0,0,1,3.49-.47,1.47,1.47,0,0,0,0,.19q.48,2,.71,3.58Q487.05,14.69,485.56,14.88Z" />
  <path class="cls-2"
        d="M502,14.13V11.4h17.14v2.73h-7v7.82h9.23v2.73h-9.23v8.08H509V24.68h-9.14V21.95H509V14.13Zm.47,2.17q.51-.22,1.53-.78.67-.38,1-.54.47.74,2.13,3.86l.88,1.65q-.47.18-2,.88l-.75.34q-.32-.59-.93-1.85Q503.25,17.5,502.51,16.29ZM513,20.44a36.68,36.68,0,0,0,2.68-5.7,32.58,32.58,0,0,1,3.16,1.55q-1.45,2.32-3.2,5.42A14.82,14.82,0,0,0,513,20.44Z" />
  <path class="cls-2"
        d="M525.5,17.8q3.86.24,7.25-7.35a22,22,0,0,1,3.86,1.32q-3.41,4-5.28,6l7.82-.19q-.67-.71-2.14-2l-.59-.53,2.64-1.79q2.23,2,6.22,6.12l-2.83,2.17-1.13-1.41-4.1.14a80.38,80.38,0,0,0-11.07.8q0-.2-.09-.59A19.09,19.09,0,0,0,525.5,17.8Zm2.45,14.86V22.61h14.41V32.66h-3.3V31.25h-8.2v1.41Zm11.12-7.51h-8.2v3.58h8.2Z" />
  <path class="cls-2"
        d="M235.32,41.35h4.26a7.91,7.91,0,0,1,1.62.18,4.72,4.72,0,0,1,1.55.62,3.47,3.47,0,0,1,1.15,1.2,3.72,3.72,0,0,1,.45,1.91A3.85,3.85,0,0,1,244,47a3.41,3.41,0,0,1-1,1.2,4.23,4.23,0,0,1-1.42.7,6.09,6.09,0,0,1-1.68.23h-3.2v7h-1.38Zm1.38,6.52h3.13a4.89,4.89,0,0,0,1.15-.14,3,3,0,0,0,1-.44,2.27,2.27,0,0,0,.71-.8,2.56,2.56,0,0,0,.27-1.23,2.44,2.44,0,0,0-.28-1.21,2.55,2.55,0,0,0-.73-.83,3,3,0,0,0-1-.47,4.82,4.82,0,0,0-1.17-.15H236.7Z" />
  <path class="cls-2"
        d="M247,49.2q0-.27,0-.66c0-.26,0-.52,0-.78s0-.51,0-.74,0-.41,0-.53h1.25q0,.54,0,1a3.22,3.22,0,0,0,.05.65,4.29,4.29,0,0,1,1.23-1.4,3.06,3.06,0,0,1,1.84-.54,2.09,2.09,0,0,1,.37,0l.37.07-.15,1.23a1.53,1.53,0,0,0-.48-.08,3.5,3.5,0,0,0-1.41.26,2.65,2.65,0,0,0-1,.72,3,3,0,0,0-.57,1.08,4.51,4.51,0,0,0-.19,1.33v5.27H247Z" />
  <path class="cls-2"
        d="M253,51.32a5.38,5.38,0,0,1,.38-2,4.86,4.86,0,0,1,1-1.61A4.65,4.65,0,0,1,256,46.61a5.47,5.47,0,0,1,2-.38,5.39,5.39,0,0,1,2,.38,4.73,4.73,0,0,1,2.66,2.66,5.69,5.69,0,0,1,0,4.08A4.72,4.72,0,0,1,260.12,56a5.38,5.38,0,0,1-2,.38,5.46,5.46,0,0,1-2-.38A4.64,4.64,0,0,1,254.43,55a4.86,4.86,0,0,1-1-1.61A5.38,5.38,0,0,1,253,51.32Zm1.25,0a4.48,4.48,0,0,0,.26,1.54,3.6,3.6,0,0,0,.76,1.25,3.69,3.69,0,0,0,1.21.85,4.18,4.18,0,0,0,3.18,0,3.7,3.7,0,0,0,1.21-.85,3.61,3.61,0,0,0,.76-1.25,4.65,4.65,0,0,0,0-3.07,3.6,3.6,0,0,0-.76-1.25,3.7,3.7,0,0,0-1.21-.85,4.18,4.18,0,0,0-3.18,0,3.68,3.68,0,0,0-1.21.85,3.59,3.59,0,0,0-.76,1.25A4.48,4.48,0,0,0,254.26,51.32Z" />
  <path class="cls-2"
        d="M275.66,55.52a6.85,6.85,0,0,1-.52,2.9,4.59,4.59,0,0,1-1.31,1.71,4.34,4.34,0,0,1-1.68.81,7.27,7.27,0,0,1-1.63.21,7.5,7.5,0,0,1-1.43-.14,6.84,6.84,0,0,1-1.33-.4,5.5,5.5,0,0,1-1.14-.64,4.49,4.49,0,0,1-.89-.86l1-.92a4,4,0,0,0,1.67,1.38,5.25,5.25,0,0,0,2.13.44,4.58,4.58,0,0,0,1.62-.25,3.22,3.22,0,0,0,1.09-.66,3.16,3.16,0,0,0,.67-.9,4.69,4.69,0,0,0,.36-1,5.28,5.28,0,0,0,.14-.93q0-.44,0-.71V54.26h0a3.85,3.85,0,0,1-1.47,1.38,4.53,4.53,0,0,1-2.18.5,5.21,5.21,0,0,1-2-.39A5.11,5.11,0,0,1,266,53.11a4.74,4.74,0,0,1,0-3.85,5,5,0,0,1,1.11-1.57,5.38,5.38,0,0,1,1.64-1.07,5.1,5.1,0,0,1,2-.4,4.53,4.53,0,0,1,2.18.5,3.85,3.85,0,0,1,1.47,1.38h0V46.49h1.25Zm-1.21-4.33a3.74,3.74,0,0,0-.3-1.49,3.8,3.8,0,0,0-2-2,3.83,3.83,0,0,0-3,0,3.8,3.8,0,0,0-2,2,3.84,3.84,0,0,0,0,3,3.8,3.8,0,0,0,2,2,3.83,3.83,0,0,0,3,0,3.8,3.8,0,0,0,2-2A3.73,3.73,0,0,0,274.45,51.19Z" />
  <path class="cls-2"
        d="M278.73,49.2q0-.27,0-.66c0-.26,0-.52,0-.78s0-.51,0-.74,0-.41,0-.53h1.25q0,.54,0,1a3.22,3.22,0,0,0,.05.65,4.29,4.29,0,0,1,1.23-1.4,3.06,3.06,0,0,1,1.84-.54,2.09,2.09,0,0,1,.37,0l.37.07-.15,1.23a1.53,1.53,0,0,0-.48-.08,3.5,3.5,0,0,0-1.41.26,2.65,2.65,0,0,0-1,.72,3,3,0,0,0-.57,1.08,4.51,4.51,0,0,0-.19,1.33v5.27h-1.25Z" />
  <path class="cls-2"
        d="M293.19,52.09q0,.71,0,1.27c0,.38,0,.72,0,1s0,.62.05.9.05.56.09.84h-1.17a9.11,9.11,0,0,1-.12-1.57h0A3.52,3.52,0,0,1,290.7,56a4.23,4.23,0,0,1-2,.44,4.91,4.91,0,0,1-1.23-.16,3.23,3.23,0,0,1-1.09-.5,2.58,2.58,0,0,1-1.09-2.2,2.58,2.58,0,0,1,.56-1.76,3.53,3.53,0,0,1,1.39-1,6.59,6.59,0,0,1,1.75-.42q.93-.09,1.64-.09h1.46v-.58a2,2,0,0,0-.77-1.8,3.3,3.3,0,0,0-1.94-.54,4.41,4.41,0,0,0-2.95,1.09l-.73-.86a4.45,4.45,0,0,1,1.71-1,6.14,6.14,0,0,1,2-.34,4.39,4.39,0,0,1,2.8.83,3.19,3.19,0,0,1,1,2.66Zm-2.51-.79a11.06,11.06,0,0,0-1.54.1,5.36,5.36,0,0,0-1.34.36,2.48,2.48,0,0,0-1,.67,1.56,1.56,0,0,0-.36,1,1.54,1.54,0,0,0,.2.78,1.73,1.73,0,0,0,.51.56,2.4,2.4,0,0,0,.7.33,2.74,2.74,0,0,0,.78.11,4,4,0,0,0,1.65-.29,2.8,2.8,0,0,0,1-.76,2.66,2.66,0,0,0,.53-1.07,5.06,5.06,0,0,0,.15-1.2v-.65Z" />
  <path class="cls-2"
        d="M296.54,49.2q0-.27,0-.66c0-.26,0-.52,0-.78s0-.51,0-.74,0-.41,0-.53h1.25q0,.54,0,1a3.21,3.21,0,0,0,.05.65h.06a3.39,3.39,0,0,1,1.25-1.37,3.65,3.65,0,0,1,2-.57,3.28,3.28,0,0,1,1.76.49,2.79,2.79,0,0,1,1.15,1.6,3.13,3.13,0,0,1,1.37-1.59,3.9,3.9,0,0,1,1.91-.5,4.12,4.12,0,0,1,1.84.36,3,3,0,0,1,1.12.93,3.5,3.5,0,0,1,.56,1.33A7.56,7.56,0,0,1,311,50.4v5.75h-1.25V50.46a6.08,6.08,0,0,0-.1-1.14,3,3,0,0,0-.37-1,1.92,1.92,0,0,0-.73-.7,2.51,2.51,0,0,0-1.22-.26,2.87,2.87,0,0,0-1.44.32,2.53,2.53,0,0,0-.89.83,3.4,3.4,0,0,0-.46,1.09,4.89,4.89,0,0,0-.14,1.11v5.43h-1.25V50.33a4.14,4.14,0,0,0-.49-2.15,1.65,1.65,0,0,0-1.52-.81,3.57,3.57,0,0,0-1.31.24,2.82,2.82,0,0,0-1.07.73,3.54,3.54,0,0,0-.71,1.23,5.24,5.24,0,0,0-.26,1.75v4.83h-1.25Z" />
  <path class="cls-2"
        d="M314.34,49.2q0-.27,0-.66c0-.26,0-.52,0-.78s0-.51,0-.74,0-.41,0-.53h1.25q0,.54,0,1a3.22,3.22,0,0,0,.05.65h.06a3.39,3.39,0,0,1,1.25-1.37,3.65,3.65,0,0,1,2-.57,3.28,3.28,0,0,1,1.76.49,2.79,2.79,0,0,1,1.15,1.6,3.13,3.13,0,0,1,1.37-1.59,3.9,3.9,0,0,1,1.91-.5,4.12,4.12,0,0,1,1.84.36,3,3,0,0,1,1.12.93,3.5,3.5,0,0,1,.56,1.33,7.56,7.56,0,0,1,.16,1.55v5.75h-1.25V50.46a6.08,6.08,0,0,0-.1-1.14,3,3,0,0,0-.37-1,1.92,1.92,0,0,0-.73-.7,2.51,2.51,0,0,0-1.22-.26,2.87,2.87,0,0,0-1.44.32,2.53,2.53,0,0,0-.89.83,3.4,3.4,0,0,0-.46,1.09,4.89,4.89,0,0,0-.14,1.11v5.43h-1.25V50.33a4.14,4.14,0,0,0-.49-2.15,1.65,1.65,0,0,0-1.52-.81,3.57,3.57,0,0,0-1.31.24,2.82,2.82,0,0,0-1.07.73,3.54,3.54,0,0,0-.71,1.23,5.24,5.24,0,0,0-.26,1.75v4.83h-1.25Z" />
  <path class="cls-2" d="M332,42.66a.93.93,0,1,1,.27.67A.91.91,0,0,1,332,42.66Zm.31,3.82h1.25v9.66h-1.25Z" />
  <path class="cls-2"
        d="M337.16,49.2q0-.27,0-.66c0-.26,0-.52,0-.78s0-.51,0-.74,0-.41,0-.53h1.25q0,.54,0,1a3.22,3.22,0,0,0,.05.65h.06a3.39,3.39,0,0,1,1.25-1.37,3.65,3.65,0,0,1,2-.57,4.12,4.12,0,0,1,1.84.36,3,3,0,0,1,1.12.93,3.5,3.5,0,0,1,.56,1.33,7.56,7.56,0,0,1,.16,1.55v5.75h-1.25V50.46a6.17,6.17,0,0,0-.1-1.14,3,3,0,0,0-.37-1,1.91,1.91,0,0,0-.73-.7,2.51,2.51,0,0,0-1.22-.26,3.57,3.57,0,0,0-1.31.24,2.82,2.82,0,0,0-1.07.73,3.54,3.54,0,0,0-.71,1.23,5.24,5.24,0,0,0-.26,1.75v4.83h-1.25Z" />
  <path class="cls-2"
        d="M358.48,55.52a6.85,6.85,0,0,1-.52,2.9,4.59,4.59,0,0,1-1.31,1.71,4.34,4.34,0,0,1-1.68.81,7.27,7.27,0,0,1-1.63.21,7.51,7.51,0,0,1-1.43-.14,6.84,6.84,0,0,1-1.33-.4,5.5,5.5,0,0,1-1.14-.64,4.49,4.49,0,0,1-.89-.86l1-.92a4,4,0,0,0,1.67,1.38,5.25,5.25,0,0,0,2.13.44,4.58,4.58,0,0,0,1.62-.25,3.22,3.22,0,0,0,1.09-.66,3.16,3.16,0,0,0,.67-.9,4.68,4.68,0,0,0,.36-1,5.28,5.28,0,0,0,.14-.93q0-.44,0-.71V54.26h0a3.85,3.85,0,0,1-1.47,1.38,4.53,4.53,0,0,1-2.18.5,5.21,5.21,0,0,1-2-.39,5.11,5.11,0,0,1-2.75-2.64,4.74,4.74,0,0,1,0-3.85,5,5,0,0,1,1.11-1.57,5.37,5.37,0,0,1,1.64-1.07,5.1,5.1,0,0,1,2-.4,4.53,4.53,0,0,1,2.18.5,3.85,3.85,0,0,1,1.47,1.38h0V46.49h1.25Zm-1.21-4.33a3.74,3.74,0,0,0-.3-1.49,3.8,3.8,0,0,0-2-2,3.83,3.83,0,0,0-3,0,3.8,3.8,0,0,0-2,2,3.84,3.84,0,0,0,0,3,3.8,3.8,0,0,0,2,2,3.83,3.83,0,0,0,3,0,3.8,3.8,0,0,0,2-2A3.73,3.73,0,0,0,357.27,51.19Z" />
  <path class="cls-2" d="M370.62,42.6h-5.06V41.35h11.49V42.6H372V56.14h-1.38Z" />
  <path class="cls-2"
        d="M385.19,54.32a4.23,4.23,0,0,1-1.81,1.59,5.75,5.75,0,0,1-2.37.48,5.14,5.14,0,0,1-2-.38A4.52,4.52,0,0,1,377.46,55a4.63,4.63,0,0,1-1-1.61,5.87,5.87,0,0,1-.34-2.06,5.54,5.54,0,0,1,.35-2,4.79,4.79,0,0,1,1-1.6A4.71,4.71,0,0,1,379,46.62a4.77,4.77,0,0,1,1.94-.39,4.66,4.66,0,0,1,2,.39,4.29,4.29,0,0,1,1.42,1,4.35,4.35,0,0,1,.87,1.45,4.87,4.87,0,0,1,.29,1.65v.88h-8.11a4.29,4.29,0,0,0,.16,1,3.58,3.58,0,0,0,.58,1.2,3.63,3.63,0,0,0,1.12,1,3.49,3.49,0,0,0,1.81.42,4,4,0,0,0,1.86-.46,3.35,3.35,0,0,0,1.38-1.25Zm-1-3.82a2.85,2.85,0,0,0-.26-1.21,3.25,3.25,0,0,0-.71-1,3.37,3.37,0,0,0-1.07-.68,3.43,3.43,0,0,0-1.31-.25,3.2,3.2,0,0,0-1.7.42,3.72,3.72,0,0,0-1.08,1,3.82,3.82,0,0,0-.56,1.06,2.8,2.8,0,0,0-.17.7Z" />
  <path class="cls-2"
        d="M395.79,52.09q0,.71,0,1.27c0,.38,0,.72,0,1s0,.62.05.9.05.56.09.84h-1.17a9.11,9.11,0,0,1-.12-1.57h0A3.52,3.52,0,0,1,393.29,56a4.23,4.23,0,0,1-2,.44,4.91,4.91,0,0,1-1.23-.16,3.23,3.23,0,0,1-1.09-.5,2.58,2.58,0,0,1-1.09-2.2,2.58,2.58,0,0,1,.56-1.76,3.53,3.53,0,0,1,1.39-1,6.59,6.59,0,0,1,1.75-.42q.93-.09,1.64-.09h1.46v-.58a2,2,0,0,0-.77-1.8,3.3,3.3,0,0,0-1.94-.54A4.41,4.41,0,0,0,389,48.45l-.73-.86a4.45,4.45,0,0,1,1.71-1,6.14,6.14,0,0,1,2-.34,4.39,4.39,0,0,1,2.8.83,3.19,3.19,0,0,1,1,2.66Zm-2.51-.79a11.06,11.06,0,0,0-1.54.1,5.37,5.37,0,0,0-1.34.36,2.48,2.48,0,0,0-1,.67,1.56,1.56,0,0,0-.36,1,1.54,1.54,0,0,0,.2.78,1.73,1.73,0,0,0,.51.56,2.4,2.4,0,0,0,.7.33,2.74,2.74,0,0,0,.78.11,4,4,0,0,0,1.65-.29,2.8,2.8,0,0,0,1-.76,2.66,2.66,0,0,0,.53-1.07,5.06,5.06,0,0,0,.15-1.2v-.65Z" />
  <path class="cls-2"
        d="M407.22,54.72A4.5,4.5,0,0,1,405.61,56a4.65,4.65,0,0,1-1.94.41,5.46,5.46,0,0,1-2-.38A4.64,4.64,0,0,1,400,55a4.86,4.86,0,0,1-1-1.61,5.71,5.71,0,0,1,0-4.08,4.86,4.86,0,0,1,1-1.61,4.65,4.65,0,0,1,1.61-1.06,5.47,5.47,0,0,1,2-.38,4.48,4.48,0,0,1,2,.44,5.19,5.19,0,0,1,1.62,1.23l-1,.75a4.36,4.36,0,0,0-1.19-1,2.94,2.94,0,0,0-1.4-.34,3.89,3.89,0,0,0-1.59.31,3.68,3.68,0,0,0-1.21.85,3.59,3.59,0,0,0-.76,1.25,4.65,4.65,0,0,0,0,3.07,3.6,3.6,0,0,0,.76,1.25,3.69,3.69,0,0,0,1.21.85,3.89,3.89,0,0,0,1.59.31,2.93,2.93,0,0,0,1.45-.37,3.8,3.8,0,0,0,1.14-1Z" />
  <path class="cls-2"
        d="M409.18,40.34h1.25v7.84h0a3.39,3.39,0,0,1,1.25-1.37,3.65,3.65,0,0,1,2-.57,4.12,4.12,0,0,1,1.84.36,3,3,0,0,1,1.12.93,3.5,3.5,0,0,1,.56,1.33,7.56,7.56,0,0,1,.16,1.55v5.75h-1.25V50.46a6.17,6.17,0,0,0-.1-1.14,3,3,0,0,0-.37-1,1.91,1.91,0,0,0-.73-.7,2.51,2.51,0,0,0-1.22-.26,3.57,3.57,0,0,0-1.31.24,2.82,2.82,0,0,0-1.07.73,3.54,3.54,0,0,0-.71,1.23,5.24,5.24,0,0,0-.26,1.75v4.83h-1.25Z" />
  <path class="cls-2" d="M420.7,42.66a.93.93,0,1,1,.27.67A.91.91,0,0,1,420.7,42.66Zm.31,3.82h1.25v9.66H421Z" />
  <path class="cls-2"
        d="M425.82,49.2q0-.27,0-.66c0-.26,0-.52,0-.78s0-.51,0-.74,0-.41,0-.53H427q0,.54,0,1a3.22,3.22,0,0,0,.05.65h.06a3.39,3.39,0,0,1,1.25-1.37,3.65,3.65,0,0,1,2-.57,4.12,4.12,0,0,1,1.84.36,3,3,0,0,1,1.12.93,3.5,3.5,0,0,1,.56,1.33,7.56,7.56,0,0,1,.16,1.55v5.75h-1.25V50.46a6.17,6.17,0,0,0-.1-1.14,3,3,0,0,0-.37-1,1.91,1.91,0,0,0-.73-.7,2.51,2.51,0,0,0-1.22-.26,3.57,3.57,0,0,0-1.31.24,2.82,2.82,0,0,0-1.07.73,3.54,3.54,0,0,0-.71,1.23,5.24,5.24,0,0,0-.26,1.75v4.83h-1.25Z" />
  <path class="cls-2"
        d="M447.14,55.52a6.85,6.85,0,0,1-.52,2.9,4.59,4.59,0,0,1-1.31,1.71,4.34,4.34,0,0,1-1.68.81,7.27,7.27,0,0,1-1.63.21,7.51,7.51,0,0,1-1.43-.14,6.84,6.84,0,0,1-1.33-.4A5.5,5.5,0,0,1,438.1,60a4.49,4.49,0,0,1-.89-.86l1-.92a4,4,0,0,0,1.67,1.38A5.25,5.25,0,0,0,442,60a4.58,4.58,0,0,0,1.62-.25,3.22,3.22,0,0,0,1.09-.66,3.16,3.16,0,0,0,.67-.9,4.68,4.68,0,0,0,.36-1,5.28,5.28,0,0,0,.14-.93q0-.44,0-.71V54.26h0a3.85,3.85,0,0,1-1.47,1.38,4.53,4.53,0,0,1-2.18.5,5.21,5.21,0,0,1-2-.39,5.11,5.11,0,0,1-2.75-2.64,4.74,4.74,0,0,1,0-3.85,5,5,0,0,1,1.11-1.57,5.37,5.37,0,0,1,1.64-1.07,5.1,5.1,0,0,1,2-.4,4.53,4.53,0,0,1,2.18.5,3.85,3.85,0,0,1,1.47,1.38h0V46.49h1.25Zm-1.21-4.33a3.74,3.74,0,0,0-.3-1.49,3.8,3.8,0,0,0-2-2,3.83,3.83,0,0,0-3,0,3.8,3.8,0,0,0-2,2,3.84,3.84,0,0,0,0,3,3.8,3.8,0,0,0,2,2,3.83,3.83,0,0,0,3,0,3.8,3.8,0,0,0,2-2A3.73,3.73,0,0,0,445.92,51.19Z" />
  <path class="cls-2" d="M460.53,41.35H462l6.23,14.8h-1.55L465,52.21h-7.84l-1.67,3.93h-1.44Zm.65,1.5L457.73,51h6.79Z" />
  <path class="cls-2"
        d="M470,53.68a2.7,2.7,0,0,0,1.17,1.18,3.45,3.45,0,0,0,1.63.41,2.63,2.63,0,0,0,.79-.12,2.44,2.44,0,0,0,.71-.36,1.93,1.93,0,0,0,.51-.55,1.39,1.39,0,0,0,.2-.74,1.19,1.19,0,0,0-.43-1,3.19,3.19,0,0,0-1.06-.52,12.67,12.67,0,0,0-1.38-.32,5.9,5.9,0,0,1-1.38-.42,3,3,0,0,1-1.05-.78,2.12,2.12,0,0,1-.43-1.42,2.48,2.48,0,0,1,.29-1.23,2.7,2.7,0,0,1,.76-.87,3.31,3.31,0,0,1,1.05-.51,4.32,4.32,0,0,1,1.19-.17,4.51,4.51,0,0,1,2.06.44A3,3,0,0,1,476,48.06l-1.13.67a2.66,2.66,0,0,0-.89-1,2.52,2.52,0,0,0-1.39-.34,2.57,2.57,0,0,0-.7.1,2.48,2.48,0,0,0-.66.29,1.71,1.71,0,0,0-.49.48,1.16,1.16,0,0,0-.2.67,1.11,1.11,0,0,0,.43,1,3.28,3.28,0,0,0,1.05.49,12.71,12.71,0,0,0,1.38.3,5.57,5.57,0,0,1,1.38.41,2.82,2.82,0,0,1,1.06.81,2.37,2.37,0,0,1,.43,1.52,2.85,2.85,0,0,1-.28,1.31,2.71,2.71,0,0,1-.77.93,3.45,3.45,0,0,1-1.12.56,4.55,4.55,0,0,1-1.32.19,5.37,5.37,0,0,1-2.29-.48,3.47,3.47,0,0,1-1.6-1.48Z" />
  <path class="cls-2"
        d="M478.88,53.68a2.7,2.7,0,0,0,1.17,1.18,3.45,3.45,0,0,0,1.63.41,2.63,2.63,0,0,0,.79-.12,2.44,2.44,0,0,0,.71-.36,1.93,1.93,0,0,0,.51-.55,1.39,1.39,0,0,0,.2-.74,1.19,1.19,0,0,0-.43-1,3.19,3.19,0,0,0-1.06-.52,12.66,12.66,0,0,0-1.38-.32,5.9,5.9,0,0,1-1.38-.42,3,3,0,0,1-1.05-.78,2.12,2.12,0,0,1-.43-1.42,2.48,2.48,0,0,1,.29-1.23,2.7,2.7,0,0,1,.76-.87,3.31,3.31,0,0,1,1.05-.51,4.32,4.32,0,0,1,1.19-.17,4.51,4.51,0,0,1,2.06.44,3,3,0,0,1,1.35,1.38l-1.13.67a2.66,2.66,0,0,0-.89-1,2.52,2.52,0,0,0-1.39-.34,2.56,2.56,0,0,0-.7.1,2.47,2.47,0,0,0-.66.29,1.71,1.71,0,0,0-.49.48,1.16,1.16,0,0,0-.2.67,1.11,1.11,0,0,0,.43,1,3.28,3.28,0,0,0,1.05.49,12.71,12.71,0,0,0,1.38.3,5.57,5.57,0,0,1,1.38.41,2.82,2.82,0,0,1,1.06.81,2.37,2.37,0,0,1,.43,1.52,2.85,2.85,0,0,1-.28,1.31,2.71,2.71,0,0,1-.77.93,3.45,3.45,0,0,1-1.12.56,4.55,4.55,0,0,1-1.32.19,5.37,5.37,0,0,1-2.29-.48,3.47,3.47,0,0,1-1.6-1.48Z" />
  <path class="cls-2" d="M487.66,42.66a.93.93,0,1,1,.27.67A.91.91,0,0,1,487.66,42.66Zm.31,3.82h1.25v9.66H488Z" />
  <path class="cls-2"
        d="M492.8,53.68A2.7,2.7,0,0,0,494,54.86a3.45,3.45,0,0,0,1.63.41,2.63,2.63,0,0,0,.79-.12,2.44,2.44,0,0,0,.71-.36,1.93,1.93,0,0,0,.51-.55,1.39,1.39,0,0,0,.2-.74,1.19,1.19,0,0,0-.43-1,3.19,3.19,0,0,0-1.06-.52,12.67,12.67,0,0,0-1.38-.32,5.9,5.9,0,0,1-1.38-.42,3,3,0,0,1-1.05-.78,2.12,2.12,0,0,1-.43-1.42,2.48,2.48,0,0,1,.29-1.23,2.7,2.7,0,0,1,.76-.87,3.31,3.31,0,0,1,1.05-.51,4.32,4.32,0,0,1,1.19-.17,4.51,4.51,0,0,1,2.06.44,3,3,0,0,1,1.35,1.38l-1.13.67a2.66,2.66,0,0,0-.89-1,2.52,2.52,0,0,0-1.39-.34,2.57,2.57,0,0,0-.7.1,2.48,2.48,0,0,0-.66.29,1.71,1.71,0,0,0-.49.48,1.16,1.16,0,0,0-.2.67,1.11,1.11,0,0,0,.43,1,3.28,3.28,0,0,0,1.05.49,12.7,12.7,0,0,0,1.38.3,5.57,5.57,0,0,1,1.38.41,2.82,2.82,0,0,1,1.06.81,2.37,2.37,0,0,1,.43,1.52,2.85,2.85,0,0,1-.28,1.31,2.71,2.71,0,0,1-.77.93,3.45,3.45,0,0,1-1.12.56,4.55,4.55,0,0,1-1.32.19,5.37,5.37,0,0,1-2.29-.48,3.47,3.47,0,0,1-1.6-1.48Z" />
  <path class="cls-2"
        d="M506.41,47.62h-2.76v6.29a1.35,1.35,0,0,0,.36,1,1.32,1.32,0,0,0,1,.35,2.9,2.9,0,0,0,.72-.09,4.69,4.69,0,0,0,.7-.24l.1,1.13a7.57,7.57,0,0,1-.82.23,3.75,3.75,0,0,1-.82.1,3,3,0,0,1-1.15-.2,2,2,0,0,1-.77-.53,2.08,2.08,0,0,1-.43-.78,3.33,3.33,0,0,1-.14-1V47.62H500.3V46.49h2.09V43.71h1.25v2.78h2.76Z" />
  <path class="cls-2"
        d="M516.15,52.09q0,.71,0,1.27c0,.38,0,.72,0,1s0,.62.05.9.05.56.09.84h-1.17a9.11,9.11,0,0,1-.12-1.57h0A3.52,3.52,0,0,1,513.65,56a4.23,4.23,0,0,1-2,.44,4.91,4.91,0,0,1-1.23-.16,3.23,3.23,0,0,1-1.09-.5,2.58,2.58,0,0,1-1.09-2.2,2.58,2.58,0,0,1,.56-1.76,3.53,3.53,0,0,1,1.39-1,6.59,6.59,0,0,1,1.75-.42q.93-.09,1.64-.09H515v-.58a2,2,0,0,0-.77-1.8,3.3,3.3,0,0,0-1.94-.54,4.41,4.41,0,0,0-2.95,1.09l-.73-.86a4.45,4.45,0,0,1,1.71-1,6.14,6.14,0,0,1,2-.34,4.39,4.39,0,0,1,2.8.83,3.19,3.19,0,0,1,1,2.66Zm-2.51-.79a11.06,11.06,0,0,0-1.54.1,5.37,5.37,0,0,0-1.34.36,2.49,2.49,0,0,0-1,.67,1.56,1.56,0,0,0-.36,1,1.54,1.54,0,0,0,.2.78,1.73,1.73,0,0,0,.51.56,2.4,2.4,0,0,0,.7.33,2.74,2.74,0,0,0,.78.11A4,4,0,0,0,513.3,55a2.8,2.8,0,0,0,1-.76,2.65,2.65,0,0,0,.53-1.07,5.06,5.06,0,0,0,.15-1.2v-.65Z" />
  <path class="cls-2"
        d="M519.49,49.2q0-.27,0-.66c0-.26,0-.52,0-.78s0-.51,0-.74,0-.41,0-.53h1.25q0,.54,0,1a3.22,3.22,0,0,0,.05.65h.06A3.39,3.39,0,0,1,522,46.81a3.65,3.65,0,0,1,2-.57,4.12,4.12,0,0,1,1.84.36,3,3,0,0,1,1.12.93,3.5,3.5,0,0,1,.56,1.33,7.56,7.56,0,0,1,.16,1.55v5.75h-1.25V50.46a6.17,6.17,0,0,0-.1-1.14,3,3,0,0,0-.37-1,1.91,1.91,0,0,0-.73-.7,2.51,2.51,0,0,0-1.22-.26,3.57,3.57,0,0,0-1.31.24,2.82,2.82,0,0,0-1.07.73,3.54,3.54,0,0,0-.71,1.23,5.24,5.24,0,0,0-.26,1.75v4.83h-1.25Z" />
  <path class="cls-2"
        d="M535.83,47.62h-2.76v6.29a1.36,1.36,0,0,0,.36,1,1.32,1.32,0,0,0,1,.35,2.9,2.9,0,0,0,.72-.09,4.69,4.69,0,0,0,.7-.24l.1,1.13a7.57,7.57,0,0,1-.82.23,3.75,3.75,0,0,1-.82.1,3,3,0,0,1-1.15-.2,2,2,0,0,1-.77-.53,2.08,2.08,0,0,1-.43-.78,3.33,3.33,0,0,1-.14-1V47.62h-2.09V46.49h2.09V43.71h1.25v2.78h2.76Z" />
  <rect class="cls-3" x="218.78" y="4.22" width="1.23" height="62.42" />
</svg>
